{"accessors":[{"bufferView":2,"componentType":5126,"count":1620,"max":[3.8373100757598877,3.6932339668273926,6.40001106262207],"min":[-3.698359966278076,-3.8452439308166504,0],"type":"VEC3","byteOffset":0},{"bufferView":2,"byteOffset":19440,"componentType":5126,"count":1620,"max":[0.9576788544654846,0.9996486306190491,0.9969365000724792],"min":[-0.9996486306190491,-0.9773096442222595,-0.9998576045036316],"type":"VEC3"},{"bufferView":3,"componentType":5126,"count":1620,"max":[0.9709001779556274,0.9825429320335388,0.917336642742157,1],"min":[-0.9625430107116699,-0.9457842707633972,-0.9736986756324768,1],"type":"VEC4","byteOffset":0},{"bufferView":1,"componentType":5126,"count":1620,"max":[0.9946749806404114,0.9942129850387573],"min":[0.004896999802440405,0.0070859999395906925],"type":"VEC2","byteOffset":0},{"bufferView":0,"componentType":5125,"count":8832,"max":[1619],"min":[0],"type":"SCALAR","byteOffset":0}],"asset":{"extras":{"author":"cjohn259 (https://sketchfab.com/cjohn259)","license":"CC-BY-4.0 (http://creativecommons.org/licenses/by/4.0/)","source":"https://sketchfab.com/models/a79ed4f1fa9a46939fbb8fa8a0341ccb","title":"Orange"},"generator":"Sketchfab-3.22.5","version":"2.0"},"bufferViews":[{"buffer":0,"byteLength":35328,"byteOffset":0,"name":"floatBufferViews","target":34963},{"buffer":0,"byteLength":12960,"byteOffset":35328,"byteStride":8,"name":"floatBufferViews","target":34962},{"buffer":0,"byteLength":38880,"byteOffset":48288,"byteStride":12,"name":"floatBufferViews","target":34962},{"buffer":0,"byteLength":25920,"byteOffset":87168,"byteStride":16,"name":"floatBufferViews","target":34962},{"buffer":0,"byteOffset":113088,"byteLength":47378},{"buffer":0,"byteOffset":160468,"byteLength":56797},{"buffer":0,"byteOffset":217268,"byteLength":105976}],"buffers":[{"byteLength":323244,"uri":"data:application/octet-stream;base64,"}],"images":[{"bufferView":4,"mimeType":"image/png"},{"bufferView":5,"mimeType":"image/png"},{"bufferView":6,"mimeType":"image/png"}],"materials":[{"doubleSided":true,"emissiveFactor":[0,0,0],"name":"b_orange_085_Mat","normalTexture":{"index":0,"scale":1,"texCoord":0},"pbrMetallicRoughness":{"baseColorFactor":[1,1,1,1],"baseColorTexture":{"index":2,"texCoord":0},"metallicFactor":0,"metallicRoughnessTexture":{"index":1,"texCoord":0},"roughnessFactor":1},"alphaMode":"OPAQUE"}],"meshes":[{"primitives":[{"attributes":{"NORMAL":1,"POSITION":0,"TANGENT":2,"TEXCOORD_0":3},"indices":4,"material":0,"mode":4}]}],"nodes":[{"children":[1],"name":"RootNode (gltf orientation matrix)","rotation":[-0.7071067811865475,0,0,0.7071067811865476],"translation":[0,0,0],"scale":[1,1,1]},{"children":[2],"name":"RootNode (model correction matrix)"},{"children":[3],"name":"d78482586c29452aa486d8289b8a2eb6.obj.cleaner.materialmerger.gles"},{"mesh":0,"name":""}],"samplers":[{"magFilter":9729,"minFilter":9987,"wrapS":10497,"wrapT":10497}],"scene":0,"scenes":[{"name":"OSG_Scene","nodes":[0]}],"textures":[{"sampler":0,"source":0},{"sampler":0,"source":1},{"sampler":0,"source":2}]}
